Coordinates
version=1
nRows=20
nColumns=24
inDegrees=yes

Units are S.I. units (second, meters, Newtons, ...)
If the header above contains a line with 'inDegrees', this indicates whether rotational values are in degrees (yes) or radians (no).

endheader
time	pelvis_tilt	pelvis_list	pelvis_rotation	pelvis_tx	pelvis_ty	pelvis_tz	hip_flexion_r	hip_adduction_r	hip_rotation_r	knee_angle_r	ankle_angle_r	subtalar_angle_r	mtp_angle_r	hip_flexion_l	hip_adduction_l	hip_rotation_l	knee_angle_l	ankle_angle_l	subtalar_angle_l	mtp_angle_l	lumbar_extension	lumbar_bending	lumbar_rotation
2.825000	11.632392	0.932872	-182.978178	0.270985	0.743871	-1.210293	46.980482	-20.200245	-17.039257	-61.269042	20.626977	8.235879	0.000000	45.994412	-26.339706	-19.221113	-62.165969	21.547487	10.233563	0.000000	-4.872040	1.257688	2.807750
2.830000	11.723183	0.939999	-182.987083	0.272021	0.740534	-1.210307	47.654259	-20.325318	-16.836421	-62.169551	20.979763	8.200935	0.000000	46.675981	-26.500493	-18.925466	-63.039700	21.923049	10.230823	0.000000	-4.921123	1.263220	2.823253
2.835000	11.719800	1.026724	-183.018546	0.272849	0.737232	-1.210529	48.191552	-20.365338	-16.695928	-63.083941	21.395109	8.156699	0.000000	47.262940	-26.787160	-18.602565	-63.964202	22.325902	10.106798	0.000000	-5.049748	1.339202	2.891067
2.840000	11.820855	1.032898	-183.036598	0.273830	0.733810	-1.210491	48.882757	-20.484551	-16.480085	-63.992311	21.747506	8.146714	0.000000	47.958527	-26.945755	-18.321041	-64.822198	22.689261	10.245858	0.000000	-5.085334	1.350521	2.892570
2.845000	11.786931	1.077820	-183.023256	0.274641	0.730564	-1.210789	49.372585	-20.567821	-16.320008	-64.881672	22.161289	8.108268	0.000000	48.503744	-27.157944	-18.013818	-65.682937	23.079681	10.320067	0.000000	-5.258426	1.337103	2.922216
2.850000	11.859498	1.108792	-183.029132	0.275527	0.727150	-1.210914	49.984281	-20.656457	-16.131955	-65.743673	22.558580	8.128033	0.000000	49.165689	-27.355453	-17.717371	-66.552232	23.475757	10.377020	0.000000	-5.320179	1.350194	2.917921
2.855000	11.910873	1.108799	-183.017985	0.276523	0.723572	-1.210905	50.626463	-20.818493	-15.964403	-66.670417	22.962095	8.080066	0.000000	49.828993	-27.502826	-17.412537	-67.457120	23.863709	10.255535	0.000000	-5.394709	1.357251	2.889850
2.860000	11.956477	1.136819	-183.039242	0.277408	0.720117	-1.211008	51.236021	-20.902274	-15.773771	-67.553725	23.341704	8.036551	0.000000	50.461764	-27.693378	-17.118454	-68.316380	24.274304	10.389072	0.000000	-5.478818	1.371057	2.937854
2.865000	12.051999	1.219837	-183.107251	0.278153	0.716654	-1.211015	51.873282	-20.934741	-15.624935	-68.417621	23.706062	7.996318	0.000000	51.138395	-27.966102	-16.818244	-69.184446	24.762769	10.378831	0.000000	-5.500761	1.454368	3.060787
2.870000	12.063151	1.323233	-183.158377	0.278914	0.713156	-1.211228	52.410780	-20.945892	-15.497835	-69.294789	24.101628	7.961965	0.000000	51.750766	-28.260944	-16.487216	-70.058236	25.191185	10.501293	0.000000	-5.611794	1.561572	3.114557
2.875000	12.074745	1.281005	-183.115210	0.279886	0.709510	-1.211256	53.014133	-21.141576	-15.282879	-70.200470	24.487087	7.943895	0.000000	52.364421	-28.349776	-16.207351	-70.923163	25.572225	10.553683	0.000000	-5.745336	1.491601	3.082278
2.880000	12.155121	1.348683	-183.154623	0.280628	0.706011	-1.211285	53.615678	-21.192421	-15.112581	-71.026348	24.806711	8.029440	0.000000	53.024140	-28.586573	-15.915925	-71.767307	25.975553	10.663372	0.000000	-5.786707	1.551022	3.168402
2.885000	12.138149	1.371448	-183.119507	0.281490	0.702405	-1.211483	54.149846	-21.328010	-14.982139	-71.921109	25.245911	7.967475	0.000000	53.621702	-28.746296	-15.589844	-72.612409	26.372496	10.744798	0.000000	-5.937053	1.545085	3.124236
2.890000	12.148174	1.428778	-183.145962	0.282251	0.698882	-1.211607	54.678247	-21.378937	-14.803996	-72.792231	25.667640	8.020198	0.000000	54.231010	-28.969396	-15.274484	-73.489224	26.714755	10.808007	0.000000	-6.054012	1.578676	3.175405
2.895000	12.207159	1.501404	-183.170128	0.282934	0.695365	-1.211664	55.243121	-21.433352	-14.667847	-73.616120	26.030621	8.007929	0.000000	54.872054	-29.187113	-14.952258	-74.283508	27.154135	10.863732	0.000000	-6.110253	1.633962	3.247813
2.900000	12.239643	1.584983	-183.188311	0.283654	0.691790	-1.211748	55.778769	-21.500970	-14.560917	-74.452185	26.393033	8.038463	0.000000	55.511672	-29.402953	-14.598135	-75.124051	27.566437	10.957917	0.000000	-6.189354	1.716346	3.268683
2.905000	12.261312	1.612417	-183.193943	0.284327	0.688228	-1.211788	56.317792	-21.613892	-14.405308	-75.279413	26.746545	8.060226	0.000000	56.124515	-29.563594	-14.283422	-76.006586	27.864777	10.981046	0.000000	-6.274491	1.732583	3.281528
2.910000	12.168831	1.632717	-183.170508	0.284889	0.684776	-1.211965	56.733115	-21.742674	-14.250804	-76.132143	27.141942	8.016588	0.000000	56.579876	-29.709434	-13.997511	-76.756185	28.304845	10.981477	0.000000	-6.477373	1.705988	3.292089
2.915000	12.259916	1.696996	-183.208441	0.285561	0.681149	-1.211961	57.340130	-21.812833	-14.123577	-76.944554	27.451343	8.093156	0.000000	57.277129	-29.906778	-13.646295	-77.602674	28.657706	11.115759	0.000000	-6.487652	1.763319	3.379891
2.920000	12.239292	1.735269	-183.222307	0.286227	0.677530	-1.211959	57.855459	-21.928199	-13.985303	-77.801047	27.812749	8.113433	0.000000	57.874899	-30.065934	-13.302467	-78.521792	28.923249	11.084491	0.000000	-6.606711	1.845005	3.324082
